<svg xmlns="http://www.w3.org/2000/svg" xmlns:xlink="http://www.w3.org/1999/xlink" id="body_1" preserveAspectRatio="xMinYMin meet" viewBox="0 0 793 1121"><defs><clipPath id="1"><path id="" clip-rule="evenodd" transform="matrix(1 0 0 1 0 0)" d="M0 841L0 -0.9000244L0 -0.9000244L595.3 -0.9000244L595.3 -0.9000244L595.3 841L595.3 841L0 841z" /></clipPath><clipPath id="2"><path id="" clip-rule="evenodd" transform="matrix(1 0 0 1 0 0)" d="M0 -0.9000244L595.3 -0.9000244L595.3 -0.9000244L595.3 841L595.3 841L0 841z" /></clipPath><clipPath id="3"><path id="" clip-rule="evenodd" transform="matrix(1 0 0 1 0 0)" d="M0 -0.9000244L595.3 -0.9000244L595.3 -0.9000244L595.3 841L595.3 841L0 841z" /></clipPath><clipPath id="4"><path id="" clip-rule="evenodd" transform="matrix(1 0 0 1 0 0)" d="M203.05 57.29999L341.55 57.29999L341.55 57.29999L341.55 99.69995L341.55 99.69995L203.05 99.69995z" /></clipPath><clipPath id="5"><path id="" clip-rule="evenodd" transform="matrix(1 0 0 1 0 0)" d="M0 -0.9000244L595.3 -0.9000244L595.3 -0.9000244L595.3 841L595.3 841L0 841z" /></clipPath><clipPath id="6"><path id="" clip-rule="evenodd" transform="matrix(1 0 0 1 0 0)" d="M0 -0.9000244L595.3 -0.9000244L595.3 -0.9000244L595.3 841L595.3 841L0 841z" /></clipPath><clipPath id="7"><path id="" clip-rule="evenodd" transform="matrix(1 0 0 1 0 0)" d="M205.5 104.7L492.85 104.7L492.85 104.7L492.85 172.8L492.85 172.8L205.5 172.8z" /></clipPath><clipPath id="8"><path id="" clip-rule="evenodd" transform="matrix(1 0 0 1 0 0)" d="M0 -0.9000244L595.3 -0.9000244L595.3 -0.9000244L595.3 841L595.3 841L0 841z" /></clipPath><clipPath id="9"><path id="" clip-rule="evenodd" transform="matrix(1 0 0 1 0 0)" d="M0 -0.9000244L595.3 -0.9000244L595.3 -0.9000244L595.3 841L595.3 841L0 841z" /></clipPath><clipPath id="10"><path id="" clip-rule="evenodd" transform="matrix(1 0 0 1 0 0)" d="M67.6 192.9L136.3 192.9L136.3 192.9L136.3 214L136.3 214L67.6 214z" /></clipPath><clipPath id="11"><path id="" clip-rule="evenodd" transform="matrix(1 0 0 1 0 0)" d="M0 -0.9000244L595.3 -0.9000244L595.3 -0.9000244L595.3 841L595.3 841L0 841z" /></clipPath><clipPath id="12"><path id="" clip-rule="evenodd" transform="matrix(1 0 0 1 0 0)" d="M43.3 218.25L484.3 218.25L484.3 218.25L484.3 235.25L484.3 235.25L43.3 235.25z" /></clipPath><clipPath id="13"><path id="" clip-rule="evenodd" transform="matrix(1 0 0 1 0 0)" d="M0 -0.9000244L595.3 -0.9000244L595.3 -0.9000244L595.3 841L595.3 841L0 841z" /></clipPath><clipPath id="14"><path id="" clip-rule="evenodd" transform="matrix(1 0 0 1 0 0)" d="M57.75 237.25L495.95 237.25L495.95 237.25L495.95 321.7L495.95 321.7L57.75 321.7z" /></clipPath><clipPath id="15"><path id="" clip-rule="evenodd" transform="matrix(1 0 0 1 0 0)" d="M0 -0.9000244L595.3 -0.9000244L595.3 -0.9000244L595.3 841L595.3 841L0 841z" /></clipPath><clipPath id="16"><path id="" clip-rule="evenodd" transform="matrix(1 0 0 1 0 0)" d="M0 -0.9000244L595.3 -0.9000244L595.3 -0.9000244L595.3 841L595.3 841L0 841z" /></clipPath><clipPath id="17"><path id="" clip-rule="evenodd" transform="matrix(1 0 0 1 0 0)" d="M42.95 355.05L483.95 355.05L483.95 355.05L483.95 372.05L483.95 372.05L42.95 372.05z" /></clipPath><clipPath id="18"><path id="" clip-rule="evenodd" transform="matrix(1 0 0 1 0 0)" d="M0 -0.9000244L595.3 -0.9000244L595.3 -0.9000244L595.3 841L595.3 841L0 841z" /></clipPath><clipPath id="19"><path id="" clip-rule="evenodd" transform="matrix(1 0 0 1 0 0)" d="M56.4 376.25L494.6 376.25L494.6 376.25L494.6 447.25L494.6 447.25L56.4 447.25z" /></clipPath><clipPath id="20"><path id="" clip-rule="evenodd" transform="matrix(1 0 0 1 0 0)" d="M0 -0.9000244L595.3 -0.9000244L595.3 -0.9000244L595.3 841L595.3 841L0 841z" /></clipPath><clipPath id="21"><path id="" clip-rule="evenodd" transform="matrix(1 0 0 1 0 0)" d="M54.9 479.8L546.05 479.8L546.05 479.8L546.05 550.6L546.05 550.6L54.9 550.6z" /></clipPath><clipPath id="22"><path id="" clip-rule="evenodd" transform="matrix(1 0 0 1 0 0)" d="M0 -0.9000244L595.3 -0.9000244L595.3 -0.9000244L595.3 841L595.3 841L0 841z" /></clipPath><clipPath id="23"><path id="" clip-rule="evenodd" transform="matrix(1 0 0 1 0 0)" d="M42.3 449L483.3 449L483.3 449L483.3 466L483.3 466L42.3 466z" /></clipPath><clipPath id="24"><path id="" clip-rule="evenodd" transform="matrix(1 0 0 1 0 0)" d="M0 -0.9000244L595.3 -0.9000244L595.3 -0.9000244L595.3 841L595.3 841L0 841z" /></clipPath><clipPath id="25"><path id="" clip-rule="evenodd" transform="matrix(1 0 0 1 0 0)" d="M43.8 608.7L534.95 608.7L534.95 608.7L534.95 687.9L534.95 687.9L43.8 687.9z" /></clipPath><clipPath id="26"><path id="" clip-rule="evenodd" transform="matrix(1 0 0 1 0 0)" d="M0 -0.9000244L595.3 -0.9000244L595.3 -0.9000244L595.3 841L595.3 841L0 841z" /></clipPath><clipPath id="27"><path id="" clip-rule="evenodd" transform="matrix(1 0 0 1 0 0)" d="M43.65 734.3L534.8 734.3L534.8 734.3L534.8 794.7L534.8 794.7L43.65 794.7z" /></clipPath><clipPath id="28"><path id="" clip-rule="evenodd" transform="matrix(1 0 0 1 0 0)" d="M0 -0.9000244L595.3 -0.9000244L595.3 -0.9000244L595.3 841L595.3 841L0 841z" /></clipPath><clipPath id="29"><path id="" clip-rule="evenodd" transform="matrix(1 0 0 1 0 0)" d="M0 -0.9000244L595.3 -0.9000244L595.3 -0.9000244L595.3 841L595.3 841L0 841z" /></clipPath><clipPath id="30"><path id="" clip-rule="evenodd" transform="matrix(1 0 0 1 0 0)" d="M69.2 328.3L137.85 328.3L137.85 328.3L137.85 349.4L137.85 349.4L69.2 349.4z" /></clipPath><clipPath id="31"><path id="" clip-rule="evenodd" transform="matrix(1 0 0 1 0 0)" d="M0 -0.9000244L595.3 -0.9000244L595.3 -0.9000244L595.3 841L595.3 841L0 841z" /></clipPath><clipPath id="32"><path id="" clip-rule="evenodd" transform="matrix(1 0 0 1 0 0)" d="M67.6 575.2L136.25 575.2L136.25 575.2L136.25 596.2999L136.25 596.2999L67.6 596.2999z" /></clipPath><clipPath id="33"><path id="" clip-rule="evenodd" transform="matrix(1 0 0 1 0 0)" d="M0 -0.9000244L595.3 -0.9000244L595.3 -0.9000244L595.3 841L595.3 841L0 841z" /></clipPath><clipPath id="34"><path id="" clip-rule="evenodd" transform="matrix(1 0 0 1 0 0)" d="M67.6 699.75L136.25 699.75L136.25 699.75L136.25 720.85L136.25 720.85L67.6 720.85z" /></clipPath><clipPath id="35"><path id="" clip-rule="evenodd" transform="matrix(1 0 0 1 0 0)" d="M0 -0.9000244L595.3 -0.9000244L595.3 -0.9000244L595.3 841L595.3 841L0 841z" /></clipPath><clipPath id="36"><path id="" clip-rule="evenodd" transform="matrix(1 0 0 1 0 0)" d="M0 -0.9000244L595.3 -0.9000244L595.3 -0.9000244L595.3 841L595.3 841L0 841z" /></clipPath><clipPath id="37"><path id="" clip-rule="evenodd" transform="matrix(1 0 0 1 0 0)" d="M50.95 57.54999L165.9 57.54999L165.9 57.54999L165.9 183.2L165.9 183.2L50.95 183.2z" /></clipPath></defs><g transform="matrix(1.333333 0 0 1.333333 0 0)"><g clip-path="url(#1)"><g clip-path="url(#2)"><g transform="matrix(0.3273194 0 0 0.3273416 0.81 -0.2700195)"><g transform="matrix(1 0 0 1 0 0)"><image x="0" y="0" xlink:href="img_01.png" width="1813" height="2573" /></g></g></g><g clip-path="url(#3)"><g clip-path="url(#4)"></g></g><g clip-path="url(#5)"><path id="5" transform="matrix(1 0 0 -1 0 841)" d="M210.15 742.225L493.15 742.225L493.15 741.475L210.15 741.475z" stroke="none" fill="#000000" fill-rule="nonzero" /><path id="6" transform="matrix(1 0 0 -1 0 841)" d="M210.2 717.875L493.15 717.875L493.15 717.125L210.2 717.125z" stroke="none" fill="#000000" fill-rule="nonzero" /><path id="7" transform="matrix(1 0 0 -1 0 841)" d="M210.2 693.775L493.15 693.775L493.15 693.025L210.2 693.025z" stroke="none" fill="#000000" fill-rule="nonzero" /><path id="8" transform="matrix(1 0 0 -1 0 841)" d="M210 667.825L492.95 667.825L492.95 667.075L210 667.075z" stroke="none" fill="#000000" fill-rule="nonzero" /></g><g clip-path="url(#6)"><g clip-path="url(#7)"></g></g><g clip-path="url(#8)"><path id="81" transform="matrix(1 0 0 -1 0 841)" d="M143.3 636.825L534.85 636.825L534.85 636.075L143.3 636.075z" stroke="none" fill="#000000" fill-rule="nonzero" /></g><g clip-path="url(#9)"><g clip-path="url(#10)"></g></g><g clip-path="url(#11)"><g clip-path="url(#12)"></g></g><g clip-path="url(#13)"><g clip-path="url(#14)"></g></g><g clip-path="url(#15)"><path id="299" transform="matrix(1 0 0 -1 0 841)" d="M51.36 592.0601C 51.3 592.646 51.804 593.15 52.425 593.15C 53.046 593.15 53.55 592.646 53.55 592.025C 53.55 591.4041 53.046 590.9 52.425 590.9C 51.804 590.9 51.3 591.4041 51.36 592.0601" stroke="none" fill="#000000" fill-rule="evenodd" /><path id="300" transform="matrix(1 0 0 -1 0 841)" d="M51.36 573.9401C 51.3 574.546 51.804 575.05 52.425 575.05C 53.046 575.05 53.55 574.546 53.55 573.925C 53.55 573.304 53.046 572.8 52.425 572.8C 51.804 572.8 51.3 573.304 51.36 573.9401" stroke="none" fill="#000000" fill-rule="evenodd" /><path id="301" transform="matrix(1 0 0 -1 0 841)" d="M51.36 556.3C 51.3 556.896 51.804 557.4 52.425 557.4C 53.046 557.4 53.55 556.896 53.55 556.275C 53.55 555.6541 53.046 555.15 52.425 555.15C 51.804 555.15 51.3 555.6541 51.36 556.3" stroke="none" fill="#000000" fill-rule="evenodd" /><path id="302" transform="matrix(1 0 0 -1 0 841)" d="M51.36 538.42C 51.3 539.0961 51.804 539.6 52.425 539.6C 53.046 539.6 53.55 539.0961 53.55 538.475C 53.55 537.854 53.046 537.35 52.425 537.35C 51.804 537.35 51.3 537.854 51.36 538.42" stroke="none" fill="#000000" fill-rule="evenodd" /></g><g clip-path="url(#16)"><g clip-path="url(#17)"></g></g><g clip-path="url(#18)"><g clip-path="url(#19)"></g></g><g clip-path="url(#20)"><g clip-path="url(#21)"></g></g><g clip-path="url(#22)"><g clip-path="url(#23)"></g></g><g clip-path="url(#24)"><g clip-path="url(#25)"></g></g><g clip-path="url(#26)"><g clip-path="url(#27)"></g></g><g clip-path="url(#28)"><path id="776" transform="matrix(1 0 0 -1 0 841)" d="M142.9 501.925L534.4 501.925L534.4 501.175L142.9 501.175z" stroke="none" fill="#000000" fill-rule="nonzero" /><path id="777" transform="matrix(1 0 0 -1 0 841)" d="M143.25 254.225L534.75 254.225L534.75 253.475L143.25 253.475z" stroke="none" fill="#000000" fill-rule="nonzero" /><path id="778" transform="matrix(1 0 0 -1 0 841)" d="M143.55 130.075L535.05 130.075L535.05 129.325L143.55 129.325z" stroke="none" fill="#000000" fill-rule="nonzero" /></g><g clip-path="url(#29)"><g clip-path="url(#30)"></g></g><g clip-path="url(#31)"><g clip-path="url(#32)"></g></g><g clip-path="url(#33)"><g clip-path="url(#34)"></g></g><g clip-path="url(#35)"><path id="791" transform="matrix(1 0 0 -1 0 841)" d="M51.36 455.62C 51.4 456.296 51.904 456.8 52.525 456.8C 53.146 456.8 53.65 456.296 53.65 455.675C 53.65 455.054 53.146 454.55 52.525 454.55C 51.904 454.55 51.4 455.054 51.36 455.62" stroke="none" fill="#000000" fill-rule="evenodd" /><path id="792" transform="matrix(1 0 0 -1 0 841)" d="M51.36 438.22C 51.4 438.896 51.904 439.4 52.525 439.4C 53.146 439.4 53.65 438.896 53.65 438.275C 53.65 437.654 53.146 437.15 52.525 437.15C 51.904 437.15 51.4 437.654 51.36 438.22" stroke="none" fill="#000000" fill-rule="evenodd" /><path id="793" transform="matrix(1 0 0 -1 0 841)" d="M51.36 420.34C 51.4 420.996 51.904 421.5 52.525 421.5C 53.146 421.5 53.65 420.996 53.65 420.375C 53.65 419.754 53.146 419.25 52.525 419.25C 51.904 419.25 51.4 419.754 51.36 420.34" stroke="none" fill="#000000" fill-rule="evenodd" /><path id="794" transform="matrix(1 0 0 -1 0 841)" d="M51.36 402.22C 51.4 402.846 51.904 403.35 52.525 403.35C 53.146 403.35 53.65 402.846 53.65 402.225C 53.65 401.604 53.146 401.1 52.525 401.1C 51.904 401.1 51.4 401.604 51.36 402.22" stroke="none" fill="#000000" fill-rule="evenodd" /><path id="795" transform="matrix(1 0 0 -1 0 841)" d="M51.84 351.82C 51.85 352.396 52.354 352.9 52.975 352.9C 53.596 352.9 54.1 352.396 54.1 351.775C 54.1 351.154 53.596 350.65 52.975 350.65C 52.354 350.65 51.85 351.154 51.84 351.82" stroke="none" fill="#000000" fill-rule="evenodd" /><path id="796" transform="matrix(1 0 0 -1 0 841)" d="M51.84 334.54C 51.85 335.196 52.354 335.7 52.975 335.7C 53.596 335.7 54.1 335.196 54.1 334.575C 54.1 333.954 53.596 333.45 52.975 333.45C 52.354 333.45 51.85 333.954 51.84 334.54" stroke="none" fill="#000000" fill-rule="evenodd" /><path id="797" transform="matrix(1 0 0 -1 0 841)" d="M51.84 318.82C 51.85 319.446 52.354 319.95 52.975 319.95C 53.596 319.95 54.1 319.446 54.1 318.825C 54.1 318.204 53.596 317.7 52.975 317.7C 52.354 317.7 51.85 318.204 51.84 318.82" stroke="none" fill="#000000" fill-rule="evenodd" /><path id="798" transform="matrix(1 0 0 -1 0 841)" d="M44.88 635.98C 44.85 641.324 49.226 645.7 54.625 645.7C 60.024 645.7 64.4 641.324 64.4 635.925C 64.4 630.526 60.024 626.15 54.625 626.15C 49.226 626.15 44.85 630.526 44.88 635.98" stroke="none" fill="#5286AE" fill-rule="evenodd" /><g transform="matrix(0.3257143 0 0 0.3257143 46.8 207.18)"><g transform="matrix(1 0 0 1 0 0)"><image x="0" y="0" xlink:href="img_02.png" width="49" height="56" /></g></g><path id="800" transform="matrix(1 0 0 -1 0 841)" d="M45.12 500.74C 45.1 506.185 49.465 510.55 54.85 510.55C 60.235 510.55 64.6 506.185 64.6 500.8C 64.6 495.415 60.235 491.05 54.85 491.05C 49.465 491.05 45.1 495.415 45.12 500.74" stroke="none" fill="#5286AE" fill-rule="evenodd" /><g transform="matrix(0.3257143 0 0 0.3268085 46.68 343.62)"><g transform="matrix(1 0 0 1 0 0)"><image x="0" y="0" xlink:href="img_03.png" width="49" height="47" /></g></g><path id="802" transform="matrix(1 0 0 -1 0 841)" d="M45 253.9C 45 259.335 49.365 263.7 54.75 263.7C 60.135 263.7 64.5 259.335 64.5 253.95C 64.5 248.565 60.135 244.2 54.75 244.2C 49.365 244.2 45 248.565 45 253.9" stroke="none" fill="#5286AE" fill-rule="evenodd" /><g transform="matrix(0.3257143 0 0 0.3268085 46.68 590.22)"><g transform="matrix(1 0 0 1 0 0)"><image x="0" y="0" xlink:href="img_04.png" width="49" height="47" /></g></g><path id="804" transform="matrix(1 0 0 -1 0 841)" d="M45 129.1C 44.95 134.435 49.315 138.8 54.7 138.8C 60.085 138.8 64.45 134.435 64.45 129.05C 64.45 123.665 60.085 119.3 54.7 119.3C 49.315 119.3 44.95 123.665 45 129.1" stroke="none" fill="#5286AE" fill-rule="evenodd" /><g transform="matrix(0.3257143 0 0 0.3268085 46.68 715.14)"><g transform="matrix(1 0 0 1 0 0)"><image x="0" y="0" xlink:href="img_05.png" width="49" height="47" /></g></g><path id="806" transform="matrix(1 0 0 -1 0 841)" d="M49.92 788.02L166.92 788.02L166.92 788.02L166.92 653.14L166.92 653.14L49.92 653.14z" stroke="none" fill="#5286AE" fill-rule="evenodd" /></g><g clip-path="url(#36)"><g clip-path="url(#37)"><g transform="matrix(0.9042857 0 0 0.9036585 58.2 61.26001)"><g transform="matrix(1 0 0 1 0 0)"><image x="0" y="0" xlink:href="img_06.png" width="112" height="164" /></g></g></g></g></g></g></svg>